<svg xmlns="http://www.w3.org/2000/svg" viewBox="0 0 200 200" width="200" height="200">
  <!-- Background Circle -->
  <circle cx="100" cy="100" r="90" fill="#f0f4f8"/>
  
  <!-- Head -->
  <circle cx="100" cy="85" r="40" fill="#f2d2bd"/>
  
  <!-- Hair -->
  <path d="M60 70 Q80 40, 100 40 Q120 40, 140 70" fill="#333" stroke="none"/>
  <path d="M60 70 Q80 85, 100 85 Q120 85, 140 70" fill="#333" stroke="none"/>
  
  <!-- Eyes -->
  <circle cx="85" cy="80" r="5" fill="#333"/>
  <circle cx="115" cy="80" r="5" fill="#333"/>
  
  <!-- Smile -->
  <path d="M85 100 Q100 110, 115 100" fill="none" stroke="#333" stroke-width="2" stroke-linecap="round"/>
  
  <!-- Facial Hair -->
  <path d="M85 105 Q100 120, 115 105" fill="#333" stroke="none"/>
  
  <!-- Body/Suit -->
  <path d="M70 125 Q100 140, 130 125 L140 180 Q100 190, 60 180 Z" fill="#2c3e50"/>
  
  <!-- Collar -->
  <path d="M85 125 L100 140 L115 125" fill="none" stroke="#fff" stroke-width="2"/>
  
  <!-- Name Label -->
  <rect x="50" y="150" width="100" height="20" rx="5" fill="#fff" opacity="0.7"/>
  <text x="100" y="165" font-family="Arial, sans-serif" font-size="12" text-anchor="middle" fill="#333">John Doe - CTO</text>
</svg>